<?xml version="1.0" encoding="iso-8859-1"?>
<!-- Generator: Adobe Illustrator 16.0.0, SVG Export Plug-In . SVG Version: 6.00 Build 0)  -->
<!DOCTYPE svg PUBLIC "-//W3C//DTD SVG 1.1//EN" "http://www.w3.org/Graphics/SVG/1.1/DTD/svg11.dtd">
<svg xmlns="http://www.w3.org/2000/svg" xmlns:xlink="http://www.w3.org/1999/xlink" version="1.1" id="Capa_1" x="0px" y="0px" width="512px" height="512px" viewBox="0 0 792 792" style="enable-background:new 0 0 792 792;" xml:space="preserve">
<g>
	<g>
		<polygon points="394.488,612 468,371.628 394.488,381.096 394.488,216 324,449.28 394.488,427.104   " fill="#FFFFFF"/>
		<path d="M432,0h-72c-36,0-36,54.108-37.08,54.108H468C468,54.108,468,0,432,0z" fill="#FFFFFF"/>
		<path d="M180,147.78V716.22c0,75.168,78.552,75.78,78.552,75.78h274.896c0,0,78.552,0,78.552-75.78V147.78    C612,72,533.448,72,533.448,72H258.552C258.552,72,180,72,180,147.78z M536.004,108c0,0,39.996,0,39.996,38.124v571.752    C576,756,536.004,756,536.004,756H255.996c0,0-39.996,0-39.996-38.124V146.124C216,106.812,255.996,108,255.996,108H536.004z" fill="#FFFFFF"/>
	</g>
</g>
<g>
</g>
<g>
</g>
<g>
</g>
<g>
</g>
<g>
</g>
<g>
</g>
<g>
</g>
<g>
</g>
<g>
</g>
<g>
</g>
<g>
</g>
<g>
</g>
<g>
</g>
<g>
</g>
<g>
</g>
</svg>
